inDegrees=yes
name=ik_Xsens_quaternion
DataType=double
version=3
OpenSimVersion=4.4-2022-07-23-0e9fedc
endheader
time	pelvis_tilt	pelvis_list	pelvis_rotation	pelvis_tx	pelvis_ty	pelvis_tz	hip_flexion_r	hip_adduction_r	hip_rotation_r	knee_angle_r	knee_angle_r_beta	ankle_angle_r	subtalar_angle_r	mtp_angle_r	hip_flexion_l	hip_adduction_l	hip_rotation_l	knee_angle_l	knee_angle_l_beta	ankle_angle_l	subtalar_angle_l	mtp_angle_l	lumbar_extension	lumbar_bending	lumbar_rotation	arm_flex_r	arm_add_r	arm_rot_r	elbow_flex_r	pro_sup_r	wrist_flex_r	wrist_dev_r	arm_flex_l	arm_add_l	arm_rot_l	elbow_flex_l	pro_sup_l	wrist_flex_l	wrist_dev_l
12.48333333333333	0	0	0	0	0.93	0	0	0	0	0	0	0	0	0	77.24721250723208	-49.99815960016588	-11.90412870974484	0.008063056964379242	0.0001407268918042769	0	0	0	0	0	0	0	0	0	0	0	0	0	0	0	0	0	0	0	0
12.5	0	0	0	0	0.93	0	0	0	0	0	-3.673419846319648e-40	0	0	0	79.07290058813896	-49.9980483242927	-10.69835462668993	0.008608672247709542	0.0001502496749475924	0	0	0	0	0	0	0	0	0	0	0	0	0	0	0	0	0	0	0	0
12.51666666666667	0	0	0	0	0.93	0	0	0	0	0	0	0	0	0	80.74728807200582	-49.99791873798089	-9.609124618724522	0.009101504996204227	0.0001588512290704778	0	0	0	0	0	0	0	0	0	0	0	0	0	0	0	0	0	0	0	0
12.53333333333333	0	0	0	0	0.93	0	0	0	0	0	0	0	0	0	82.32122361991284	-49.99776751319261	-8.604998711405136	0.009557694132203256	0.000166813231505489	0	0	0	0	0	0	0	0	0	1.22646467279427e-39	1.227139597895209e-39	0	0	0	0	0	0	1.336265138832114e-39	0	0
12.55	0	0	0	0	0.93	0	0	0	0	0	0	0	0	0	83.82122095399188	-49.9975829163678	-7.604317027254667	0.01003577982105088	0.0001751574008825452	0	0	0	0	0	0	0	0	0	0	0	0	1.683771628589691e-37	0	0	0	0	0	6.735086514358763e-37	0
12.56666666666667	0	0	0	0	0.93	0	0	0	0	2.104714535737113e-38	1.018373818782586e-40	0	0	0	85.18885950739582	-49.99734972929485	-6.563815440719345	0.01054041144016331	0.000183964884145727	0	0	0	0	0	0	0	0	0	4.744160719525515e-39	7.667014716614978e-40	0	0	0	0	0	4.744160719525515e-39	7.667014716614978e-40	0	0
12.58333333333333	1.002716720630455e-11	-4.252629655406025e-13	1.401873503581262e-12	-5.352308805092869e-21	0.93	2.772560627294465e-20	-1.190487434155989e-15	6.358156581623405e-16	0	0	-4.025626312948721e-17	4.983791232898378e-16	1.75982248374878e-16	-5.191252755515439e-17	86.45324084483775	-49.9970491093508	-5.37933778376412	0.01115868374531975	0.0001947557715842372	2.229733923728301e-16	-1.088832928570366e-16	1.172429156193388e-16	0	-2.00951359731659e-17	1.038787600016991e-25	-2.448507731604123e-20	1.322763942624468e-16	-8.001260223206005e-17	0	0	-3.866328555194388e-17	-5.439372135622506e-16	-3.861099100771341e-17	2.602472067923865e-16	9.420237364520163e-17	0	0	1.345459960691664e-17	-5.312784738323376e-16
12.6	-3.32774430550101e-27	9.006272497303039e-16	9.374265402982886e-27	5.939146203514211e-18	0.93	1.050784244082541e-17	-3.897318258935164e-29	-4.717746127184985e-20	0	2.071446405366573e-15	3.615355998787036e-17	-4.995812276426974e-18	1.552347320657935e-18	-5.98548134197027e-17	87.7006294404018	-49.99665536908249	-3.910167479215408	0.01200181702818936	0.0002094712233638253	1.593812654539557e-17	1.007618324422292e-18	-3.009620815143081e-17	0	8.31644349753511e-21	-9.750238466738541e-25	-3.722827335836838e-18	5.129764260041449e-21	-3.818508712197079e-17	2.07007983245465e-15	2.071446114361958e-15	-3.914173816093579e-17	-1.077057314330843e-16	-4.955552730467809e-18	2.21778245096824e-17	-9.326529149848531e-18	2.071471352385341e-15	2.071444575338811e-15	-8.80802999442139e-17	-9.986548541641421e-17
12.61666666666667	2.3802885266668e-27	1.09857301032955e-13	-2.59512547037246e-28	-8.4399304914423e-16	0.93	3.516894381968623e-16	-8.874057633223461e-34	-1.939569835594884e-14	0	3.448539946238182e-07	6.018837644890407e-09	-1.592390596303407e-16	1.925067439929603e-16	1.408211492901053e-14	88.76818416668317	-49.99613268222179	-2.423344214311522	0.01251576679837143	0.0002184413390424124	7.779464994761526e-15	6.014837579327048e-17	6.818781548846889e-15	0	3.512277212449728e-13	-3.630572853680363e-29	4.348479025641329e-18	5.286787933057721e-16	2.240547449611286e-16	3.44853972881638e-07	3.448540682390088e-07	3.070285513075009e-14	2.511541269308196e-15	-7.334854077766416e-17	2.06133215048496e-16	-2.34439866340514e-17	3.448538800063198e-07	3.448540682391121e-07	-1.554692134893368e-15	-4.988921772866701e-16
12.63333333333333	0	0	0	0	0.93	0	0	0	0	0	0	0	0	0	89.64361017260059	-49.99544526621361	-1.256120380245205	0.0126793591927306	0.0002212965649561592	0	0	0	0	0	0	0	0	0	0	0	0	0	0	0	0	0	0	0	0
12.65	0	0	0	0	0.93	0	0	0	0	0	0	0	0	0	90.34499689269386	-49.99454818433907	-0.585381471262016	0.01227867172725788	0.0002143032494121891	0	0	0	0	0	0	0	0	0	0	0	0	0	0	0	0	0	0	0	0
12.66666666666667	0	0	0	0	0.93	0	0	0	0	1.052357267868557e-38	0	0	0	0	90.95628477394753	-49.99328147206646	-0.2698490792290047	0.01183088506039996	0.0002064878977289876	0	0	0	0	0	0	0	0	0	0	0	0	0	0	0	0	0	0	0	0
12.68333333333333	7.334537848726151e-12	-1.595828671613143e-11	2.539441202712783e-12	9.988487331856533e-20	0.93	-5.900575446462389e-20	2.703272127122447e-28	1.887751875110227e-22	0	9.802695459069435e-15	1.71089311277217e-16	-3.129555598630278e-17	-2.84444214136023e-19	-2.70011417681236e-19	91.51328164135923	-49.99144810841915	-0.2049206806891256	0.01139225007973479	0.0001988322731040497	-5.060943434771479e-18	4.746603534545584e-20	-2.374201323706877e-20	0	4.61761322914773e-23	1.863067937941129e-26	-1.58116149188965e-19	-4.424419799117109e-23	-6.548029986296293e-17	9.802695431806288e-15	9.802695485169663e-15	1.260723595161144e-21	-1.305414994998099e-17	-3.700189715721007e-17	-8.192473076978325e-19	1.790016270856109e-17	9.802695431391603e-15	9.802695485059549e-15	2.396608349393682e-21	4.915520298154611e-20
12.7	0	0	0	0	0.93	0	0	0	0	0	0	0	0	0	92.05998937836269	-49.98863698216505	-0.2219822737605502	0.01106718788607556	0.0001931588675488496	0	0	0	0	0	0	0	0	0	2.421505340964435e-39	1.052357267868557e-38	0	0	0	0	0	2.421505340964435e-39	1.052357267868557e-38	0	0
12.71666666666667	-7.896570179911097e-28	-3.024147415020377e-18	-1.842014479830158e-28	2.372670709435618e-19	0.93	4.229873540102153e-20	4.310455369189608e-35	9.311882945529949e-23	0	0	-5.377695917726196e-19	6.616758079852068e-17	6.239089837164395e-18	3.376868887325167e-16	92.62412515386914	-49.9841393146183	-0.2497450763101367	0.01093870910244563	0.0001909164897555499	-2.998942966386764e-17	-4.400356460484695e-18	-8.776705669054747e-17	0	9.90731582599588e-22	4.41857482806444e-25	-7.910677337606097e-19	-2.296780224170945e-22	7.970415102264068e-16	0	0	-1.158794783878738e-22	-8.978430118757553e-21	1.075472429517661e-16	-3.04251594662862e-16	1.008242362031653e-16	0	0	1.239278897658895e-21	-1.115696091352986e-19
12.73333333333333	-1.684789965049751e-26	5.855368461606999e-19	-3.186351248442384e-26	-1.19856881021194e-19	0.93	5.305966065845764e-19	-5.317170357613776e-30	1.96949318240007e-23	0	2.061968942852163e-15	3.598814712828555e-17	-6.139422524200385e-16	4.223483292565102e-19	4.981560467229414e-16	93.14818137475027	-49.97650957993695	-0.4546467815940058	0.01088313664275407	0.0001899465673605004	2.670981529329413e-16	1.690695604220564e-17	1.667744151491405e-16	0	4.396900399865031e-24	-6.714443005483322e-25	-1.64136365980021e-18	-9.67708602150558e-23	-2.901713684995584e-15	2.061968921079497e-15	2.061968987080401e-15	-9.821158562660525e-20	-5.630093501035724e-19	-4.300962434440597e-17	-2.040870085366156e-15	-1.732046170287499e-17	2.061967848476422e-15	2.061969380468209e-15	3.337680151063229e-19	1.312160228990054e-18
12.75	-2.31950792203577e-30	6.294285092465946e-16	5.328960919151536e-31	-2.289130709159054e-16	0.93	6.774656743741678e-16	2.577862525859789e-33	1.548876411706748e-15	0	2.997712148423467e-07	5.231994701723659e-09	-1.602184246751541e-12	1.321565959789e-12	7.015538462437303e-13	93.55641752945789	-49.96044190362834	-0.8910245139913359	0.01070610041187068	0.0001868567022392848	2.066988208392468e-12	1.938240877786907e-13	2.645340131291591e-11	0	-2.685252737290663e-15	-3.71266012459686e-29	1.598783520019272e-14	4.6028435435945e-18	-2.666051463694009e-11	2.997712149195288e-07	2.997712149195175e-07	1.16534423113117e-13	-4.744194217878341e-16	-1.857494538648291e-12	-3.701485662438567e-12	7.653305654983512e-13	2.997712149195291e-07	2.997712149195175e-07	-2.324483965272873e-13	-7.213466804346682e-16
12.76666666666667	0	0	0	0	0.93	0	-2.044132765176078e-38	1.347017302871753e-36	0	0	0	0	0	0	93.90153376056982	-49.9128330913131	-1.431332097339571	0.01055642975478146	0.0001842444564764341	0	0	0	0	0	0	0	0	0	0	0	0	0	0	0	0	0	0	1.725865919304433e-36	0
12.78333333333333	0	0	0	0	0.93	0	0	0	0	0	0	0	0	0	94.18931546322824	-49.75902488716166	-1.957739795523917	0.01043283041765415	0.0001820872410902801	0	0	0	0	0	0	0	0	0	0	0	0	0	0	0	0	0	0	0	0
12.8	0	0	0	0	0.93	0	0	0	0	0	0	0	0	0	94.42701140121018	-49.50857921495962	-2.459269262498237	0.01025177358598363	0.0001789272032444003	0	0	0	0	0	0	0	0	0	0	0	0	0	0	0	0	0	0	0	0
12.81666666666667	0	0	0	0	0.93	0	0	0	0	0	0	0	0	0	94.60298468581938	-49.28589217660362	-2.937894023565907	0.0101138357188952	0.000176519733300529	0	0	0	0	0	0	0	0	0	0	0	0	0	0	0	0	0	0	0	0
12.83333333333333	-7.306739105420688e-30	-1.273314296407895e-19	-2.415980061243191e-29	-9.868116657498372e-21	0.93	2.839032701402144e-20	0	-5.820259241293036e-21	0	1.314032751302957e-14	2.293419798794075e-16	-4.133799050992007e-18	-3.399786456828467e-21	9.529739948747417e-25	94.75412094656144	-49.08184393372753	-3.255235927946756	0.009961030155278258	0.0001738527731000476	-6.686610123094635e-18	-4.629444576093589e-22	1.525820576280681e-23	0	-6.096141353472232e-20	-4.863348169745723e-27	-2.868398971385635e-22	-2.512036702546245e-24	5.594116165326147e-19	1.314032746978123e-14	1.314030521953835e-14	-9.351373612458663e-19	-3.44512872190829e-18	1.514980675030681e-18	-6.235199255170298e-18	1.172217798600537e-18	1.314032739410671e-14	1.314033950248804e-14	7.066647664295806e-19	-1.68120027926375e-18
12.85	0	0	0	0	0.93	0	0	0	0	0	0	0	0	0	94.91636277367604	-48.925761635764	-3.318677158931849	0.009851726129792645	0.0001719450579696399	0	0	0	0	0	0	0	0	0	0	0	0	0	0	0	0	0	0	0	0
12.86666666666667	0	0	0	0	0.93	0	0	0	0	0	0	0	0	0	95.05341618935681	-48.83007893533554	-3.244160655815523	0.009721395688683765	0.0001696703626567134	0	0	0	0	0	0	0	0	0	0	0	0	0	0	0	0	0	0	0	0
12.88333333333333	0	0	0	0	0.93	0	0	0	0	0	0	0	0	0	95.15016010865341	-48.79096564968138	-3.123845781688659	0.009550467497589766	0.000166687102937645	0	0	0	0	0	0	0	0	0	0	0	0	0	0	0	0	0	0	0	0
12.9	0	0	0	0	0.93	0	0	0	0	0	0	0	0	0	95.1919426039595	-48.81682204652397	-3.07220549965034	0.009361110083449769	0.0001633821925978396	0	0	0	0	0	0	0	0	0	0	0	0	0	0	0	0	0	0	0	0
12.91666666666667	0	0	0	0	0.93	0	0	0	0	0	0	0	0	0	95.1756527135508	-48.91441200352217	-3.153841435006452	0.009220613833602953	0.0001609300704513081	0	0	0	0	0	0	0	0	0	0	0	0	0	0	0	0	0	0	0	0
12.93333333333333	4.716505334062783e-26	3.332442100475289e-18	3.309520665742078e-26	-1.66610744829825e-19	0.93	-2.153495706899448e-19	-3.305995220503122e-29	-1.258449302045186e-21	0	6.583416412827899e-15	1.149022924377397e-16	-3.208851231124749e-15	2.804425985504503e-16	5.901125266135657e-16	95.15800588315808	-49.08851513133107	-3.282431809200852	0.00908063295382275	0.0001584869432093052	6.353556651911172e-16	9.102747147768351e-19	-4.642615554844461e-16	0	-3.389717467295632e-20	-1.597335842798603e-25	8.504576949477854e-18	-1.566527023606946e-21	-8.597500420482903e-16	6.583614787207038e-15	6.583194857683071e-15	7.149895199242366e-22	4.765090186145176e-22	-8.473109977322865e-16	-1.06714598560138e-15	2.218869541765718e-16	6.583730513266752e-15	6.583834260327035e-15	3.304694611495186e-23	7.1672875437517e-22
12.95	-1.266818355764095e-27	2.013084463248293e-17	1.747236052426488e-26	-6.92216351922222e-19	0.93	-6.071243704735645e-19	-3.631589425431536e-37	-1.45317492899788e-28	2.296205750472648e-27	8.097829891485869e-15	1.413337931749999e-16	3.928840938689435e-20	-9.91815960297066e-19	6.074031999484541e-19	95.15353002819063	-49.33549116527116	-3.378379088197515	0.009046964147486146	0.0001578993116835151	-1.897637684932343e-19	-2.716330126446186e-19	-1.71417512229689e-18	-9.558541577020183e-26	6.200411737627157e-24	-3.676816436742621e-24	3.001983673629115e-19	-1.511821722254715e-19	-8.57638531778299e-20	8.097829864182464e-15	8.097829917600579e-15	4.128053192004054e-23	9.082326201124246e-25	5.30104028412236e-19	2.069561078211999e-20	7.854015343616011e-20	8.09782986417279e-15	8.097829917595406e-15	-5.565684096936977e-24	-2.617633449820927e-24
